<svg width="58" height="63" viewBox="0 0 58 63" fill="none" xmlns="http://www.w3.org/2000/svg">
<path d="M47.7433 7.91419L4.39149 16.5374C3.87844 16.6395 3.52191 17.1421 3.59516 17.66L8.32758 51.121C8.40084 51.639 8.87613 51.9761 9.38919 51.8741L22.7189 49.2226C23.232 49.1206 23.7073 49.4577 23.7805 49.9757L24.6075 55.8232C24.7102 56.5494 25.5563 56.8444 26.1233 56.3518L37.5757 46.4016C37.7068 46.2877 37.8637 46.2102 38.0299 46.1771L52.741 43.2509C53.2541 43.1488 53.6106 42.6462 53.5374 42.1283L48.805 8.66724C48.7317 8.14929 48.2564 7.81214 47.7433 7.91419Z" fill="#499643"/>
<path fill-rule="evenodd" clip-rule="evenodd" d="M1.11781 18.1529C0.849213 16.2537 2.15648 14.4108 4.03769 14.0366L47.3895 5.41338C49.2707 5.03918 51.0135 6.2754 51.2821 8.17457L56.0145 41.6356C56.2831 43.5347 54.9758 45.3776 53.0946 45.7518L38.8068 48.5939L27.6881 58.2542C25.609 60.0606 22.5068 58.9787 22.1302 56.316L21.5242 52.0316L9.74279 54.3751C7.86159 54.7493 6.11883 53.513 5.85023 51.6139L1.11781 18.1529ZM6.29337 18.7304L10.5837 49.0653L22.3651 46.7218C24.2463 46.3476 25.9891 47.5839 26.2577 49.483L26.6973 52.5912L36.0108 44.4993C36.0108 44.4993 36.0108 44.4993 36.0108 44.4993C36.4914 44.0818 37.0665 43.7975 37.6761 43.6763L50.839 41.058L46.5487 10.7231L6.29337 18.7304Z" fill="white"/>
<path d="M47.1119 3.17835L3.76002 11.8016C3.24697 11.9036 2.89044 12.4062 2.96369 12.9242L7.69611 46.3852C7.76937 46.9032 8.24466 47.2403 8.75772 47.1382L22.0874 44.4868C22.6005 44.3847 23.0758 44.7219 23.1491 45.2399L23.9761 51.0874C24.0788 51.8136 24.9248 52.1086 25.4919 51.616L36.9443 41.6657C37.0753 41.5518 37.2322 41.4743 37.3985 41.4413L52.1096 38.515C52.6226 38.413 52.9792 37.9104 52.9059 37.3924L48.1735 3.9314C48.1002 3.41345 47.6249 3.0763 47.1119 3.17835Z" fill="#499643"/>
<path fill-rule="evenodd" clip-rule="evenodd" d="M0.486342 13.417C0.217743 11.5179 1.52501 9.67495 3.40622 9.30076L46.7581 0.677537C48.6393 0.303344 50.382 1.53956 50.6506 3.43873L55.383 36.8997C55.6516 38.7989 54.3444 40.6418 52.4632 41.016L38.1753 43.858L27.0566 53.5184C24.9776 55.3247 21.8753 54.2429 21.4987 51.5802L20.8928 47.2957L9.11132 49.6392C7.23012 50.0134 5.48736 48.7772 5.21876 46.878L0.486342 13.417ZM5.6619 13.9946L9.95219 44.3295L21.7336 41.986C23.6148 41.6118 25.3576 42.848 25.6262 44.7472L26.0658 47.8554L35.3793 39.7635C35.3793 39.7635 35.3793 39.7635 35.3793 39.7635C35.8599 39.3459 36.435 39.0617 37.0446 38.9404L50.2075 36.3222L45.9172 5.98729L5.6619 13.9946Z" fill="white"/>
<path d="M22.9041 26.6148C22.7477 29.4313 20.3826 31.7103 17.6217 31.7052C14.8608 31.7001 12.7495 29.4128 12.906 26.5963C13.0625 23.7798 15.4275 21.5007 18.1884 21.5058C20.9493 21.5109 23.0606 23.7983 22.9041 26.6148Z" fill="white"/>
<path fill-rule="evenodd" clip-rule="evenodd" d="M17.7457 29.4749C19.2991 29.4778 20.6298 28.1954 20.7178 26.6107C20.8058 25.026 19.6179 23.739 18.0645 23.7362C16.511 23.7333 15.1804 25.0156 15.0923 26.6003C15.0043 28.1851 16.1922 29.472 17.7457 29.4749ZM17.6217 31.7052C20.3826 31.7103 22.7477 29.4313 22.9041 26.6148C23.0606 23.7983 20.9493 21.5109 18.1884 21.5058C15.4275 21.5007 13.0625 23.7798 12.906 26.5963C12.7495 29.4128 14.8608 31.7001 17.6217 31.7052Z" fill="#499643"/>
<path d="M32.8131 24.6438C32.6566 27.4603 30.2916 29.7394 27.5307 29.7343C24.7698 29.7292 22.6585 27.4418 22.8149 24.6254C22.9714 21.8089 25.3364 19.5298 28.0973 19.5349C30.8582 19.54 32.9695 21.8273 32.8131 24.6438Z" fill="white"/>
<path fill-rule="evenodd" clip-rule="evenodd" d="M27.6546 27.504C29.208 27.5068 30.5387 26.2245 30.6267 24.6398C30.7148 23.0551 29.5268 21.7681 27.9734 21.7652C26.42 21.7624 25.0893 23.0447 25.0013 24.6294C24.9132 26.2141 26.1012 27.5011 27.6546 27.504ZM27.5307 29.7343C30.2916 29.7394 32.6566 27.4603 32.8131 24.6438C32.9695 21.8273 30.8582 19.54 28.0973 19.5349C25.3364 19.5298 22.9714 21.8089 22.8149 24.6254C22.6585 27.4418 24.7698 29.7292 27.5307 29.7343Z" fill="#499643"/>
<path d="M42.7221 22.6726C42.5656 25.4891 40.2006 27.7682 37.4397 27.7631C34.6788 27.758 32.5675 25.4707 32.724 22.6542C32.8805 19.8377 35.2455 17.5586 38.0064 17.5637C40.7673 17.5688 42.8786 19.8561 42.7221 22.6726Z" fill="white"/>
<path fill-rule="evenodd" clip-rule="evenodd" d="M37.5636 25.5328C39.1171 25.5356 40.4478 24.2533 40.5358 22.6686C40.6238 21.0839 39.4359 19.7969 37.8825 19.794C36.329 19.7912 34.9984 21.0735 34.9103 22.6582C34.8223 24.2429 36.0102 25.5299 37.5636 25.5328ZM37.4397 27.7631C40.2006 27.7682 42.5656 25.4891 42.7221 22.6726C42.8786 19.8561 40.7673 17.5688 38.0064 17.5637C35.2455 17.5586 32.8805 19.8377 32.724 22.6542C32.5675 25.4707 34.6788 27.758 37.4397 27.7631Z" fill="#499643"/>
</svg>
