<svg width="43" height="55" viewBox="0 0 43 55" fill="none" xmlns="http://www.w3.org/2000/svg">
<path d="M2 50.1265V2.87175C2 2.3903 2.38993 2 2.87093 2H38.1291C38.6101 2 39 2.3903 39 2.87175V50.1265C39 50.8941 38.0806 51.287 37.5268 50.7562L21.1023 35.0157C20.7655 34.693 20.2345 34.693 19.8977 35.0157L3.47323 50.7562C2.91936 51.287 2 50.8941 2 50.1265Z" fill="#499643"/>
<path fill-rule="evenodd" clip-rule="evenodd" d="M4.57301 4.59267V46.4751L18.3257 33.251C19.5415 32.0819 21.4585 32.0819 22.6743 33.251L36.427 46.4751V4.59267H4.57301ZM38.8444 48.7996L38.8428 48.7981ZM0 3.15746C0 1.41364 1.4076 0 3.14394 0H37.8561C39.5924 0 41 1.41366 41 3.15747V49.8362C41 52.6163 37.6812 54.0395 35.6818 52.1169L20.5 37.5186L5.3182 52.1169L3.76209 50.4846L5.3182 52.1169C3.31876 54.0395 0 52.6163 0 49.8362V3.15746Z" fill="white"/>
<path fill-rule="evenodd" clip-rule="evenodd" d="M40.5466 4L43 49.6827C43 54.3551 37.4113 56.7471 34.0443 53.5158L20.2733 42.8885L4.003 52.5369L0 50.2071L16.6119 33.8589C18.6593 31.894 21.8873 31.894 23.9347 33.8589L33.961 43.481L36.027 4H40.5466Z" fill="white"/>
</svg>
