<svg width="62" height="58" viewBox="0 0 62 58" fill="none" xmlns="http://www.w3.org/2000/svg">
<path d="M7.87582 54.0734L3.02087 13.5519C2.94765 12.9408 3.46773 12.4248 4.07865 12.5025L18.1029 14.2858C18.4209 14.3262 18.7374 14.2033 18.9441 13.9591L22.7026 9.51813C22.8598 9.3324 23.0827 9.21455 23.325 9.18908L32.1736 8.25906C32.4431 8.23074 32.7122 8.31918 32.9127 8.50204L35.9355 11.2581C36.1305 11.4359 36.3907 11.5247 36.6535 11.503L50.8545 10.3318C51.3468 10.2912 51.7888 10.6356 51.8697 11.123L58.1075 48.7019C58.1966 49.2388 57.816 49.7389 57.2749 49.796L8.91868 54.905C8.40259 54.9595 7.93756 54.5887 7.87582 54.0734Z" fill="#499643"/>
<path fill-rule="evenodd" clip-rule="evenodd" d="M20.7718 7.88426C21.3481 7.20325 22.1655 6.77114 23.054 6.67775L31.9026 5.74773C32.8909 5.64386 33.8775 5.96817 34.6128 6.63863L37.1256 8.92976L50.6399 7.81518C52.4451 7.6663 54.0655 8.92922 54.3621 10.7162L60.5999 48.2952C60.9267 50.2636 59.5314 52.0974 57.5473 52.307L9.1911 57.4159C7.29874 57.6158 5.59362 56.2562 5.36725 54.3667L0.5123 13.8452C0.243836 11.6045 2.15077 9.71271 4.39081 9.99754L17.5654 11.6727L20.7718 7.88426ZM24.2253 11.634L20.875 15.5927L18.9441 13.959L18.8833 13.9075M24.2253 11.634L31.7383 10.8444L34.2355 13.1212C34.9507 13.7734 35.9047 14.0988 36.8681 14.0194L49.616 12.968L55.2677 46.2603L10.1654 51.1285L5.76954 15.2619L17.7908 16.7905C18.9568 16.9387 20.1172 16.4881 20.875 15.5927L18.9441 13.959M31.2127 10.3652L31.2142 10.3665C31.2137 10.3661 31.2132 10.3656 31.2127 10.3652Z" fill="white"/>
<path d="M7.66105 48.4914L3.84603 13.1437C3.7899 12.6236 4.16614 12.1577 4.68638 12.103L17.5947 10.7463C17.836 10.7209 18.0582 10.604 18.2153 10.4195L21.883 6.11316C22.0401 5.92869 22.2622 5.81172 22.5035 5.78635L30.9834 4.89508C31.2344 4.8687 31.4858 4.94354 31.6818 5.10298L35.9082 8.54016C36.1043 8.69961 36.3557 8.77444 36.6067 8.74806L50.6856 7.2683C51.2059 7.21363 51.6731 7.59091 51.7292 8.111L55.5443 43.4586C55.6004 43.9787 55.2241 44.4447 54.7039 44.4993L8.70466 49.3341C8.18442 49.3887 7.71718 49.0114 7.66105 48.4914Z" fill="#499643"/>
<path fill-rule="evenodd" clip-rule="evenodd" d="M19.9571 4.47355C20.5331 3.79718 21.3476 3.36826 22.2324 3.27527L30.7123 2.384C31.6325 2.28728 32.5543 2.56166 33.2732 3.1463L36.9891 6.16829L50.4145 4.75722C52.322 4.55673 54.0353 5.94011 54.2411 7.84709L58.0561 43.1947C58.2619 45.1017 56.8824 46.8102 54.9748 47.0107L8.97559 51.8454C7.06803 52.0459 5.35481 50.6625 5.149 48.7555L1.33398 13.4079C1.12816 11.5009 2.50769 9.79243 4.41524 9.59193L16.6972 8.30105L19.9571 4.47355ZM30.6008 7.47508L23.4008 8.23182L20.141 12.0593C19.5649 12.7357 18.7505 13.1646 17.8656 13.2576L6.52726 14.4493L10.0035 46.658L52.8628 42.1533L49.3866 9.94462L36.8776 11.2594C35.9574 11.3561 35.0356 11.0817 34.3167 10.4971L30.6008 7.47508ZM22.605 6.72816L23.8087 7.75298Z" fill="white"/>
<path d="M36.4266 26.025C36.8339 29.7988 34.1039 33.1798 30.329 33.5765C26.554 33.9733 23.1636 31.2356 22.7563 27.4618C22.349 23.688 25.079 20.307 28.854 19.9103C32.6289 19.5135 36.0193 22.2512 36.4266 26.025Z" fill="#499643"/>
<path fill-rule="evenodd" clip-rule="evenodd" d="M29.1152 22.3304C26.6772 22.5866 24.9141 24.7702 25.1771 27.2075C25.4402 29.6447 27.6298 31.4128 30.0678 31.1566C32.5058 30.9003 34.269 28.7168 34.0059 26.2795C33.7429 23.8422 31.5532 22.0741 29.1152 22.3304ZM20.3356 27.7163C19.784 22.6059 23.4809 18.0276 28.5929 17.4903C33.7048 16.953 38.2959 20.6602 38.8475 25.7706C39.399 30.881 35.7021 35.4594 30.5902 35.9967C25.4783 36.534 20.8872 32.8267 20.3356 27.7163Z" fill="white"/>
</svg>
