<svg width="24" height="28" viewBox="0 0 24 28" fill="none" xmlns="http://www.w3.org/2000/svg">
<path d="M19.7096 20.4658L18.1104 22.1061C18.1101 22.1064 18.1099 22.1066 18.1097 22.1069C16.9294 23.3071 15.3981 24.8518 13.514 26.7413C13.0394 27.2172 12.4088 27.48 11.7563 27.48C11.1039 27.48 10.4735 27.2173 9.99891 26.7416C9.99881 26.7415 9.99872 26.7414 9.99862 26.7413L5.28731 21.9883C5.28707 21.9881 5.28684 21.9879 5.2866 21.9876C4.69404 21.3857 4.2013 20.8788 3.80298 20.4658C2.2274 18.8317 1.1525 16.7476 0.716889 14.4761C0.281263 12.2046 0.505071 9.85027 1.35931 7.71162C2.2135 5.5731 3.65881 3.7482 5.50973 2.46565C7.36041 1.18325 9.5342 0.5 11.7563 0.5C13.9784 0.5 16.1522 1.18325 18.0029 2.46565C19.8538 3.7482 21.2991 5.5731 22.1533 7.71162C23.0076 9.85027 23.2314 12.2046 22.7957 14.4761C22.3602 16.7471 21.2857 18.8308 19.7106 20.4647C19.7103 20.4651 19.71 20.4654 19.7096 20.4658ZM15.6319 12.5765C15.6319 11.5212 15.2278 10.5057 14.5031 9.75411C13.7778 9.00194 12.7902 8.57585 11.7563 8.57585C10.7225 8.57585 9.73481 9.00194 9.00953 9.75411C8.28484 10.5057 7.88078 11.5212 7.88078 12.5765C7.88078 13.6318 8.28484 14.6473 9.00953 15.3989C9.73481 16.1511 10.7225 16.5771 11.7563 16.5771C12.7902 16.5771 13.7778 16.1511 14.5031 15.3989C15.2278 14.6473 15.6319 13.6318 15.6319 12.5765Z" fill="#AFEC00" stroke="black"/>
</svg>
