<svg width="14" height="14" viewBox="0 0 14 14" fill="none" xmlns="http://www.w3.org/2000/svg">
<path d="M13 12.3724L9.64799 9.02038C10.4535 8.05336 10.8552 6.81301 10.7695 5.55737C10.6838 4.30173 10.1173 3.12747 9.18782 2.27887C8.25838 1.43028 7.03756 0.972674 5.77932 1.00126C4.52108 1.02985 3.32231 1.54243 2.43237 2.43237C1.54243 3.32231 1.02985 4.52108 1.00126 5.77932C0.972674 7.03756 1.43028 8.25838 2.27887 9.18782C3.12747 10.1173 4.30173 10.6838 5.55737 10.7695C6.81301 10.8552 8.05336 10.4535 9.02038 9.64799L12.3724 13L13 12.3724ZM1.90359 5.89829C1.90359 5.10822 2.13787 4.33588 2.57682 3.67895C3.01576 3.02203 3.63965 2.51001 4.36959 2.20766C5.09952 1.90531 5.90273 1.82621 6.67762 1.98034C7.45252 2.13448 8.16431 2.51494 8.72298 3.07361C9.28165 3.63228 9.66211 4.34407 9.81625 5.11897C9.97038 5.89386 9.89128 6.69707 9.58893 7.427C9.28658 8.15694 8.77456 8.78083 8.11764 9.21977C7.46071 9.65872 6.68837 9.893 5.89829 9.893C4.83919 9.89183 3.82381 9.47058 3.07491 8.72168C2.32601 7.97278 1.90476 6.9574 1.90359 5.89829Z" fill="white" stroke="white" stroke-linejoin="round"/>
</svg>
